Coordinates
version=1
nRows=43
nColumns=12
inDegrees=yes

Units are S.I. units (second, meters, Newtons, ...)
Angles are in degrees

endheader
time	SC_y	SC_z	SC_x	AC_y	AC_z	AC_x	GH_y	GH_z	GH_yy	EL_x	PS_y
       0.0              -28.25          31.97          22.99          62.51         -5.723         -6.559         -136.5          78.07         -108.8          120.3          139.2
   0.04877              -28.25          31.96          22.99          62.51         -5.724         -6.559         -136.5          78.07         -108.8          120.3          139.2
   0.09755              -28.25          31.96          22.99          62.51         -5.725          -6.56         -136.5          78.06         -108.8          120.3          139.2
    0.1463              -28.26          31.96          22.99          62.51         -5.726         -6.561         -136.4          78.06         -108.8          120.3          139.2
    0.1951              -28.26          31.96          22.99           62.5         -5.727         -6.562         -136.4          78.05         -108.8          120.3          139.2
    0.2439              -28.26          31.95          22.99           62.5         -5.728         -6.563         -136.4          78.05         -108.8          120.3          139.2
    0.2926              -28.26          31.95          22.99           62.5         -5.729         -6.564         -136.4          78.04         -108.8          120.2          139.2
    0.3414              -28.26          31.95          22.99           62.5         -5.731         -6.565         -136.4          78.03         -108.8          120.2          139.2
    0.3902              -28.27          31.94          22.99           62.5         -5.732         -6.566         -136.4          78.03         -108.8          120.2          139.1
     0.439              -28.27          31.94          22.99           62.5         -5.734         -6.567         -136.4          78.02         -108.8          120.2          139.1
    0.4877              -28.27          31.94          22.99           62.5         -5.735         -6.568         -136.3          78.01         -108.8          120.2          139.1
    0.5365              -28.27          31.93          22.99          62.49         -5.737         -6.569         -136.3           78.0         -108.8          120.2          139.1
    0.5853              -28.28          31.93          22.98          62.49         -5.739         -6.571         -136.3          77.99         -108.7          120.1          139.1
    0.6341              -28.28          31.92          22.98          62.49         -5.741         -6.572         -136.3          77.98         -108.7          120.1          139.0
    0.6828              -28.28          31.92          22.98          62.49         -5.743         -6.574         -136.2          77.97         -108.7          120.1          139.0
    0.7316              -28.29          31.91          22.98          62.49         -5.746         -6.576         -136.2          77.96         -108.7          120.1          139.0
    0.7804              -28.29          31.91          22.98          62.48         -5.748         -6.578         -136.2          77.94         -108.7          120.1          139.0
    0.8292               -28.3           31.9          22.98          62.48         -5.751          -6.58         -136.2          77.93         -108.7          120.0          138.9
    0.8779               -28.3          31.89          22.98          62.48         -5.754         -6.582         -136.1          77.91         -108.6          120.0          138.9
    0.9267              -28.31          31.88          22.98          62.47         -5.758         -6.585         -136.1           77.9         -108.6          120.0          138.9
    0.9755              -28.31          31.87          22.98          62.47         -5.761         -6.588         -136.0          77.88         -108.6          119.9          138.8
     1.024              -28.32          31.86          22.98          62.47         -5.766         -6.591         -136.0          77.85         -108.6          119.9          138.8
     1.073              -28.33          31.85          22.98          62.46          -5.77         -6.594         -135.9          77.83         -108.6          119.8          138.7
     1.122              -28.34          31.84          22.98          62.46         -5.775         -6.598         -135.9          77.81         -108.5          119.8          138.7
     1.171              -28.35          31.83          22.97          62.45         -5.781         -6.602         -135.8          77.78         -108.5          119.7          138.6
     1.219              -28.36          31.81          22.97          62.44         -5.787         -6.607         -135.7          77.74         -108.4          119.7          138.5
     1.268              -28.37          31.79          22.97          62.44         -5.794         -6.612         -135.6          77.71         -108.4          119.6          138.4
     1.317              -28.38          31.77          22.97          62.43         -5.802         -6.618         -135.6          77.67         -108.4          119.5          138.4
     1.366              -28.39          31.75          22.97          62.42         -5.811         -6.625         -135.5          77.62         -108.3          119.5          138.3
     1.414              -28.41          31.73          22.96          62.41         -5.821         -6.633         -135.3          77.57         -108.2          119.4          138.1
     1.463              -28.43           31.7          22.96           62.4         -5.832         -6.642         -135.2          77.51         -108.2          119.2          138.0
     1.512              -28.45          31.67          22.96          62.39         -5.846         -6.652         -135.0          77.44         -108.1          119.1          137.9
     1.561              -28.48          31.63          22.95          62.37         -5.861         -6.663         -134.9          77.37         -108.0          119.0          137.7
      1.61               -28.5          31.59          22.95          62.35         -5.879         -6.677         -134.7          77.27         -107.9          118.8          137.5
     1.658              -28.54          31.54          22.94          62.33           -5.9         -6.692         -134.4          77.17         -107.8          118.6          137.3
     1.707              -28.58          31.48          22.94          62.31         -5.924         -6.711         -134.1          77.04         -107.6          118.4          137.0
     1.756              -28.63           31.4          22.93          62.28         -5.953         -6.733         -133.8          76.89         -107.4          118.1          136.7
     1.805              -28.68          31.32          22.92          62.24         -5.988          -6.76         -133.4          76.71         -107.2          117.8          136.3
     1.853              -28.75          31.21          22.91           62.2          -6.03         -6.792         -132.9           76.5         -106.9          117.3          135.8
     1.902              -28.84          31.09           22.9          62.15         -6.082         -6.831         -132.3          76.23         -106.6          116.8          135.2
     1.951              -28.94          30.93          22.88          62.09         -6.146         -6.879         -131.5          75.91         -106.2          116.2          134.5
       2.0              -29.07          30.74          22.86          62.01         -6.225         -6.939         -130.6           75.5         -105.7          115.5          133.6
     2.048              -29.23          30.49          22.83          61.91         -6.325         -7.015         -129.4          74.99         -105.1          114.5          132.5
